Coordinates
version=1
nRows=41
nColumns=38
inDegrees=no

Units are S.I. units (second, meters, Newtons, ...)
If the header above contains a line with 'inDegrees', this indicates whether rotational values are in degrees (yes) or radians (no).

endheader
time	pelvis_tilt	pelvis_list	pelvis_rotation	pelvis_tx	pelvis_ty	pelvis_tz	hip_flexion_r	hip_adduction_r	hip_rotation_r	knee_angle_r	ankle_angle_r	subtalar_angle_r	mtp_angle_r	hip_flexion_l	hip_adduction_l	hip_rotation_l	knee_angle_l	ankle_angle_l	subtalar_angle_l	mtp_angle_l	lumbar_extension	lumbar_bending	lumbar_rotation	arm_flex_r	arm_add_r	arm_rot_r	elbow_flex_r	pro_sup_r	wrist_flex_r	wrist_dev_r	arm_flex_l	arm_add_l	arm_rot_l	elbow_flex_l	pro_sup_l	wrist_flex_l	wrist_dev_l
3.73	-1.40704	1.53745	0.203136	0.837144	0.170972	0.960369	0.0031337	0.0533803	-0.120922	0.0738566	0.0259052	0	0	0.446649	-0.0216565	0.125246	1.29221	0.194576	0	0	0.00850074	0.157215	0.118795	-0.0810238	-0.190312	-0.336883	1.44335	1.5708	0	0	-0.488891	-0.0674017	0.0172571	0.783402	1.07484	0	0
3.74	-1.33776	1.54123	0.121843	0.836495	0.165064	0.960937	-0.0132187	0.052264	-0.10731	0.0598237	0.0245624	0	0	0.453846	-0.0202275	0.110124	1.26645	0.191502	0	0	0.00430956	0.152871	0.119935	-0.0857258	-0.186782	-0.335774	1.44786	1.5708	0	0	-0.486944	-0.0673137	0.0176175	0.789728	1.0642	0	0
3.75	-1.27305	1.54485	0.0448647	0.835877	0.159073	0.961405	-0.0284225	0.0506892	-0.0934985	0.0467746	0.0235557	0	0	0.460229	-0.0197828	0.0940791	1.23723	0.187515	0	0	0.00134428	0.148348	0.120907	-0.0910909	-0.183371	-0.335211	1.45224	1.5708	0	0	-0.485217	-0.0667579	0.0139334	0.79445	1.05373	0	0
3.76	-1.23575	1.54826	-0.00453905	0.835316	0.153134	0.961748	-0.0407723	0.0487429	-0.082127	0.0369888	0.0241637	0	0	0.466278	-0.0198828	0.077974	1.20457	0.1835	0	0	-1.24994e-05	0.143898	0.121669	-0.0968884	-0.180158	-0.334898	1.45631	1.5708	0	0	-0.482839	-0.0664824	0.00901021	0.796243	1.04722	0	0
3.77	-0.980189	1.55176	-0.270573	0.834573	0.147226	0.962025	-0.058864	0.0464005	-0.0691767	0.0240188	0.0239623	0	0	0.467116	-0.0200393	0.0621042	1.16943	0.18111	0	0	-0.00469224	0.137052	0.126637	-0.105929	-0.174723	-0.341047	1.46313	1.5708	0	0	-0.444959	-0.0634246	-0.144411	0.74695	1.5708	0	0
3.78	-0.820527	1.55342	-0.439983	0.834228	0.141595	0.962298	-0.0737172	0.0450322	-0.0554834	0.0112983	0.0218857	0	0	0.470271	-0.021223	0.047808	1.132	0.178105	0	0	-0.00782733	0.133145	0.124391	-0.110572	-0.171641	-0.339528	1.46835	1.5708	0	0	-0.441275	-0.0614476	-0.157987	0.750669	1.5708	0	0
3.79	-0.792157	1.55533	-0.477307	0.834029	0.136176	0.962289	-0.0822833	0.0437968	-0.0483494	0.00509883	0.0240015	0	0	0.475376	-0.0230429	0.0344504	1.09272	0.175822	0	0	-0.00770693	0.130286	0.12242	-0.11651	-0.168789	-0.339	1.47411	1.5708	0	0	-0.437565	-0.0633341	-0.156924	0.752469	1.5708	0	0
3.8	-0.964	1.55793	-0.317324	0.833986	0.130773	0.962272	-0.0865447	0.0422143	-0.0360048	0.000215527	0.0244914	0	0	0.480873	-0.0261938	0.0198191	1.04962	0.173982	0	0	-0.00539639	0.129165	0.118573	-0.12002	-0.167649	-0.333501	1.47858	1.5708	0	0	-0.471174	-0.0726361	0.0113365	0.821304	0.935831	0	0
3.81	-1.01118	1.56005	-0.28019	0.833859	0.12536	0.962045	-0.0927251	0.0405186	-0.027647	0	0.0265388	0	0	0.483737	-0.028867	0.00726853	1.00585	0.172731	0	0	-0.0047298	0.126249	0.116832	-0.125891	-0.164686	-0.332501	1.48507	1.5708	0	0	-0.467908	-0.0733208	0.00773407	0.826965	0.930238	0	0
3.82	-1.17733	1.56138	-0.122597	0.833941	0.120018	0.961677	-0.0980418	0.0397761	-0.021885	0	0.0292169	0	0	0.486918	-0.0316433	-0.00258538	0.96095	0.171232	0	0	-0.00293731	0.124318	0.113444	-0.131851	-0.161876	-0.331797	1.49132	1.5708	0	0	-0.464512	-0.0724002	-0.0018398	0.828571	0.945077	0	0
3.83	-1.3367	1.5626	0.0269402	0.834024	0.11476	0.961289	-0.10353	0.0385452	-0.0126913	0	0.0311473	0	0	0.488544	-0.0346979	-0.0127355	0.914467	0.168248	0	0	-0.00224178	0.12227	0.111785	-0.138069	-0.158825	-0.332518	1.49836	1.5708	0	0	-0.460266	-0.0724521	-0.00745713	0.831967	0.938822	0	0
3.84	-1.54093	1.56378	0.219636	0.834086	0.109565	0.960838	-0.108084	0.0367725	-0.00159866	0	0.0338298	0	0	0.489116	-0.038182	-0.0227072	0.867616	0.16319	0	0	-0.00205219	0.120123	0.111536	-0.144152	-0.156329	-0.333008	1.50552	1.5708	0	0	-0.455791	-0.0725901	-0.0127941	0.836935	0.933431	0	0
3.85	-1.77829	1.56454	0.446256	0.83432	0.104291	0.960341	-0.11259	0.0351038	0.00762364	0	0.0373716	0	0	0.488862	-0.0413894	-0.0303936	0.820492	0.155379	0	0	-0.00154514	0.118001	0.110256	-0.15059	-0.153742	-0.333262	1.51238	1.5708	0	0	-0.451795	-0.0731557	-0.0182342	0.843509	0.930425	0	0
3.86	-2.00168	1.56513	0.659807	0.834744	0.0989645	0.959881	-0.117587	0.0332936	0.015597	0	0.0413337	0	0	0.487278	-0.0440289	-0.0359973	0.771663	0.144794	0	0	-0.00120534	0.115856	0.108094	-0.15741	-0.15079	-0.333382	1.51894	1.5708	0	0	-0.447879	-0.073984	-0.0233971	0.848919	0.929091	0	0
3.87	-2.175	1.56557	0.823277	0.835266	0.093594	0.959461	-0.12279	0.0314861	0.0235435	0	0.0457707	0	0	0.484479	-0.046831	-0.0399548	0.722955	0.13116	0	0	-0.0011986	0.11393	0.10548	-0.164097	-0.14832	-0.332385	1.52525	1.5708	0	0	-0.444103	-0.0748633	-0.0280813	0.852914	0.929036	0	0
3.88	-2.32963	1.56654	0.966782	0.835762	0.0881428	0.959094	-0.128536	0.0291294	0.032638	0	0.0501047	0	0	0.480004	-0.0500996	-0.0431345	0.675099	0.115809	0	0	-0.00195663	0.111613	0.10394	-0.170762	-0.146135	-0.330891	1.53127	1.5708	0	0	-0.440045	-0.076029	-0.0328427	0.856918	0.93006	0	0
3.89	-2.68321	1.56715	1.30877	0.836425	0.0826233	0.958688	-0.133668	0.0260268	0.0414563	0	0.0545461	0	0	0.47564	-0.053025	-0.0443721	0.62899	0.10187	0	0	-0.00197106	0.109021	0.102727	-0.177772	-0.144178	-0.329139	1.53683	1.5708	0	0	-0.436382	-0.0768809	-0.0387694	0.861554	0.93114	0	0
3.9	2.98253	1.5641	1.91737	0.836922	0.0775946	0.958337	-0.134142	0.0216858	0.0487803	0	0.0585936	0	0	0.480246	-0.0542842	-0.0307668	0.588407	0.0823093	0	0	0.000314204	0.103256	0.0981735	-0.182582	-0.139649	-0.327221	1.5385	1.5708	0	0	-0.431216	-0.078168	-0.0484208	0.863214	0.940997	0	0
3.91	2.49467	1.56788	2.38919	0.837762	0.0711872	0.957939	-0.145565	0.0192046	0.0618949	0	0.0630773	0	0	0.462886	-0.0598807	-0.0423813	0.540989	0.0856669	0	0	-0.00331062	0.102969	0.0995807	-0.191222	-0.139541	-0.32454	1.54741	1.5708	0	0	-0.431322	-0.0767113	-0.0590042	0.870109	0.945106	0	0
3.92	2.15479	1.5634	2.71752	0.838396	0.0659869	0.957779	-0.147888	0.0123209	0.0714875	0	0.0675841	0	0	0.463046	-0.0610893	-0.028428	0.502303	0.0732397	0	0	-0.00275819	0.0956465	0.0970067	-0.196144	-0.136101	-0.321489	1.54908	1.5708	0	0	-0.427124	-0.0782702	-0.0674695	0.873752	0.947922	0	0
3.93	1.62929	1.5646	-3.05743	0.839379	0.05954	0.957259	-0.157516	0.00957437	0.0838007	0	0.0729837	0	0	0.447917	-0.0678684	-0.0367977	0.46221	0.0797554	0	0	-0.00522887	0.0959438	0.099193	-0.205005	-0.137451	-0.317507	1.55762	1.5708	0	0	-0.428343	-0.077805	-0.073541	0.882014	0.948776	0	0
3.94	1.73832	1.55987	3.10395	0.8402	0.0543132	0.957115	-0.15861	0.00192187	0.0912321	0.00382713	0.0788312	0	0	0.450134	-0.0697029	-0.0283218	0.436115	0.072682	0	0	-0.00498275	0.0885815	0.0963955	-0.20948	-0.13489	-0.313299	1.55909	1.5708	0	0	-0.425608	-0.0789102	-0.0816455	0.88456	0.952577	0	0
3.95	1.60537	1.55807	-3.0632	0.840972	0.0482739	0.956765	-0.163971	-0.00334842	0.102418	0.00761886	0.0842016	0	0	0.439361	-0.0768279	-0.0150946	0.39611	0.0665645	0	0	-0.00568873	0.0849144	0.0974846	-0.216967	-0.134032	-0.309161	1.56411	1.5708	0	0	-0.42448	-0.0788859	-0.0935785	0.890466	0.962775	0	0
3.96	1.37165	1.55664	-2.85051	0.842278	0.0416563	0.95623	-0.172232	-0.00969035	0.116563	0.00999751	0.0901762	0	0	0.424374	-0.083017	-0.0204412	0.363699	0.0678155	0	0	-0.00704149	0.08414	0.102344	-0.227326	-0.136176	-0.304906	1.57318	1.5708	0	0	-0.425449	-0.0763595	-0.104713	0.896591	0.970556	0	0
3.97	1.31437	1.55156	-2.8058	0.843076	0.0356605	0.956293	-0.179306	-0.0174031	0.121964	0.0126015	0.0943261	0	0	0.419398	-0.0880508	-0.000234645	0.338745	0.0559079	0	0	-0.00776208	0.0756167	0.0980823	-0.232989	-0.131166	-0.299706	1.57332	1.5708	0	0	-0.424293	-0.0787486	-0.114883	0.900102	0.97391	0	0
3.98	1.26734	1.54921	-2.77701	0.844178	0.0295245	0.955986	-0.18412	-0.0242941	0.133539	0.0169001	0.0998746	0	0	0.411438	-0.0951981	0.00954505	0.315407	0.0485827	0	0	-0.00755091	0.0719718	0.0991917	-0.240703	-0.130233	-0.294766	1.57797	1.5708	0	0	-0.424077	-0.077825	-0.12532	0.903068	0.977873	0	0
3.99	1.11431	1.54869	-2.6445	0.845589	0.0227996	0.955387	-0.191555	-0.0293825	0.146299	0.020039	0.105727	0	0	0.399322	-0.104397	0.0104191	0.296383	0.0479924	0	0	-0.0079705	0.0724458	0.102362	-0.251107	-0.131896	-0.290674	1.58698	1.5708	0	0	-0.426092	-0.0754867	-0.135225	0.907905	0.981879	0	0
4	1.10893	1.54644	-2.65758	0.846972	0.016557	0.954989	-0.195338	-0.0371418	0.156648	0.0248979	0.111422	0	0	0.392741	-0.111756	0.0217514	0.280292	0.0387639	0	0	-0.00694236	0.068763	0.103736	-0.260065	-0.130962	-0.28818	1.59236	1.5708	0	0	-0.425842	-0.0748621	-0.144553	0.909899	0.984617	0	0
4.01	1.11386	1.54427	-2.68072	0.848495	0.0103067	0.954539	-0.198649	-0.0451833	0.16731	0.0298279	0.116879	0	0	0.386942	-0.11894	0.0336136	0.267728	0.0310229	0	0	-0.00544749	0.0650728	0.104607	-0.269594	-0.129785	-0.287227	1.59785	1.5708	0	0	-0.425781	-0.0743017	-0.152686	0.911078	0.98427	0	0
4.02	1.1234	1.54225	-2.708	0.850199	0.00406993	0.954059	-0.201336	-0.053295	0.177631	0.0353188	0.122202	0	0	0.382199	-0.125865	0.0460093	0.259225	0.0268093	0	0	-0.0035041	0.0615477	0.104572	-0.278962	-0.1285	-0.286515	1.60378	1.5708	0	0	-0.425569	-0.0735804	-0.160651	0.911248	0.982764	0	0
4.03	1.1296	1.54047	-2.73132	0.85213	-0.00219638	0.953569	-0.20356	-0.0612559	0.186611	0.0415915	0.127587	0	0	0.3783	-0.132525	0.0581695	0.254691	0.0261283	0	0	-0.00140132	0.0582269	0.103993	-0.288777	-0.127186	-0.285556	1.61077	1.5708	0	0	-0.425293	-0.0730417	-0.16755	0.911329	0.977639	0	0
4.04	1.13389	1.53898	-2.75194	0.854314	-0.00853353	0.953036	-0.205539	-0.0690541	0.194305	0.0482378	0.133136	0	0	0.375284	-0.138796	0.0698619	0.253969	0.0283545	0	0	0.000748488	0.055167	0.102518	-0.299228	-0.126816	-0.28397	1.61883	1.5708	0	0	-0.424738	-0.0713434	-0.178068	0.909576	0.995905	0	0
4.05	1.09047	1.53572	-2.7242	0.856688	-0.0148964	0.952672	-0.210297	-0.0783279	0.201493	0.05391	0.138884	0	0	0.367794	-0.142941	0.0847149	0.251191	0.0283947	0	0	0.000215308	0.0508065	0.100196	-0.309678	-0.12634	-0.281899	1.62675	1.5708	0	0	-0.423664	-0.0706475	-0.185745	0.908001	0.9987	0	0
4.06	1.1264	1.52879	-2.77641	0.858958	-0.0210932	0.952709	-0.212317	-0.0926277	0.208938	0.0612347	0.144216	0	0	0.328163	-0.138011	0.149138	0.186945	-0.00227332	0	0	0.00124661	0.0406017	0.0981958	-0.318666	-0.12357	-0.278962	1.62969	1.5708	0	0	-0.421508	-0.071694	-0.192204	0.903422	0.999593	0	0
4.07	1.13189	1.52797	-2.79602	0.861787	-0.0275116	0.952032	-0.213775	-0.100466	0.216242	0.0676979	0.149555	0	0	0.326656	-0.142376	0.159645	0.193679	0.000277831	0	0	0.00399745	0.0382197	0.0948424	-0.331012	-0.123929	-0.27685	1.63868	1.5708	0	0	-0.420725	-0.0715957	-0.196546	0.900752	1.00125	0	0
4.08	1.13953	1.52748	-2.81731	0.864805	-0.0339646	0.951297	-0.214944	-0.108212	0.223222	0.0741946	0.154637	0	0	0.325057	-0.146236	0.168341	0.20105	0.00165256	0	0	0.00685293	0.0361211	0.091625	-0.343987	-0.124073	-0.276055	1.64769	1.5708	0	0	-0.419828	-0.0721867	-0.198196	0.898204	0.997808	0	0
4.09	1.15046	1.5274	-2.84174	0.867941	-0.0404543	0.950487	-0.215296	-0.115758	0.229465	0.0815231	0.160041	0	0	0.32309	-0.149892	0.173883	0.208429	0.0028656	0	0	0.00993846	0.0344011	0.0886315	-0.357282	-0.123317	-0.27747	1.65645	1.5708	0	0	-0.418703	-0.072951	-0.199294	0.894792	0.999209	0	0
4.1	1.1654	1.52712	-2.86997	0.87126	-0.0470914	0.949622	-0.21511	-0.123835	0.235243	0.089724	0.165812	0	0	0.319861	-0.152637	0.17625	0.21449	0.00447865	0	0	0.0133693	0.0326104	0.0860235	-0.371475	-0.121656	-0.28161	1.66523	1.5708	0	0	-0.417657	-0.0741244	-0.19956	0.891458	1.00038	0	0
4.11	1.18465	1.52686	-2.90181	0.87484	-0.0538945	0.94871	-0.21436	-0.132112	0.240199	0.0988221	0.171524	0	0	0.315278	-0.154389	0.176231	0.218403	0.00811182	0	0	0.017403	0.0310534	0.0827399	-0.386321	-0.120182	-0.287527	1.67343	1.5708	0	0	-0.417033	-0.0750651	-0.199586	0.887836	1.00178	0	0
4.12	1.21031	1.52695	-2.94003	0.878599	-0.060779	0.947742	-0.212729	-0.14035	0.244969	0.108579	0.177271	0	0	0.309459	-0.155775	0.173062	0.220016	0.0152956	0	0	0.0219634	0.0300319	0.0797143	-0.401916	-0.118671	-0.296196	1.68116	1.5708	0	0	-0.416382	-0.0758205	-0.198946	0.883413	1.00426	0	0
4.13	1.24454	1.52732	-2.98742	0.882446	-0.0677418	0.946723	-0.210013	-0.148557	0.250262	0.119089	0.182917	0	0	0.302193	-0.157124	0.165064	0.219116	0.0255008	0	0	0.0269154	0.0294903	0.0778229	-0.418114	-0.11701	-0.306693	1.68857	1.5708	0	0	-0.415511	-0.0763933	-0.197987	0.87839	1.00788	0	0
